<?xml version="1.0" encoding="utf-8"?>
<!-- Generator: Adobe Illustrator 14.0.0, SVG Export Plug-In . SVG Version: 6.00 Build 43363)  -->
<!DOCTYPE svg PUBLIC "-//W3C//DTD SVG 1.1//EN" "http://www.w3.org/Graphics/SVG/1.1/DTD/svg11.dtd">
<svg version="1.1" id="图层_1" xmlns="http://www.w3.org/2000/svg" xmlns:xlink="http://www.w3.org/1999/xlink" x="0px" y="0px"
	 width="64px" height="64px" viewBox="0 0 64 64" enable-background="new 0 0 64 64" xml:space="preserve">
<g>
	<path fill="#FFFFFF" d="M0,54.563h2.408v-1.055h3.468v5.043h2.551v-5.043h3.542v0.879h2.62v-6.691H8.427v-1.467
		c0-0.43,0.07-0.801,0.211-1.113c0.048-0.08,0.073-0.139,0.073-0.178s-0.167-0.076-0.495-0.117H5.809v2.877H0V54.563z M2.408,49.341
		h3.468v2.582H2.408V49.341z M11.969,51.923H8.427v-2.582h3.542V51.923z M15.926,58.476h2.205v-0.736h9.922v0.623h2.272V45.554
		H15.926V58.476L15.926,58.476z M28.053,47.089v9.166h-9.922v-9.166H28.053z M19.027,50.62v1.424h2.825v1.879h-3.239v1.482h8.957
		v-1.482h-1.308l1.032-0.57c-0.091-0.113-0.413-0.551-0.964-1.309h0.826V50.62h-3.099v-1.254h3.375v-1.424h-8.679v1.424h3.101v1.254
		H19.027L19.027,50.62z M24.402,52.612c0.367,0.418,0.711,0.855,1.031,1.311h-1.375v-1.879h1.375L24.402,52.612z M37.483,49.124
		h-3.578c0.094-0.158,0.208-0.357,0.346-0.598c0.092-0.238,0.181-0.438,0.274-0.598h3.438v-1.555h-2.82
		c0.366-0.717,0.575-1.135,0.619-1.256c-0.596-0.16-1.306-0.297-2.13-0.416c-0.094-0.043-0.163-0.063-0.21-0.063
		c-0.458,2.115-1.214,4.047-2.268,5.801c0.411,0.119,0.963,0.396,1.65,0.838l0.414-0.658h0.48v1.316h-2.201v1.553h2.201v1.977
		c0,0.236-0.229,0.496-0.687,0.773c0.457,1.238,0.754,1.914,0.892,2.033c0,0,0.276-0.141,0.827-0.418
		c1.23-0.689,2.469-1.367,3.714-2.033c-0.183-0.521-0.299-1.064-0.344-1.615c-0.69,0.338-1.377,0.676-2.064,1.02
		c0.092-0.041,0,0-0.274,0.117v-1.854h1.995v-1.553h-1.995v-1.256h1.719v-1.557H37.483z M38.859,45.776
		c-0.229,1.754-0.62,3.248-1.172,4.486c1.195,0.078,1.857,0.137,1.996,0.178c0.228-0.48,0.414-0.957,0.551-1.436h1.306v1.494
		c0,0.281-0.023,0.479-0.07,0.6h-3.093v1.613h2.889c-0.644,1.875-2.132,3.488-4.47,4.842c0.409,0.16,1.123,0.52,2.13,1.076
		c1.329-1.035,2.524-2.309,3.578-3.824c0.871,1.676,2.063,2.926,3.576,3.762c0.55-0.754,1.054-1.309,1.512-1.672
		c-1.97-0.955-3.255-2.352-3.85-4.184h3.301v-1.613h-3.439c0.047-0.121,0.066-0.318,0.066-0.6v-1.434h2.82V47.45h-2.748v-1.674
		c0-0.238,0.023-0.479,0.067-0.719c0.047-0.117,0.023-0.199-0.067-0.236c-0.092-0.082-0.824-0.119-2.202-0.119v2.748h-0.895
		c0.106-0.361,0.22-0.719,0.344-1.076l0.07-0.418L38.859,45.776L38.859,45.776z M53.657,47.159h2.427v0.6h-3.189v1.432h3.189v0.658
		h-2.496v1.375h2.496v0.537h-2.633v1.436h2.633v0.535h-3.052v1.494h3.052v1.316c-1.756,0-3.12-0.318-4.093-0.957
		c0.603-1.275,0.879-3.188,0.835-5.736h-1.734c0.55-1.035,1.175-2.43,1.872-4.186h-4.996v1.615h2.081
		c-0.185,0.836-0.438,1.455-0.76,1.852c-0.278,0.4-0.696,0.619-1.249,0.66v1.611h2.564v1.375c-0.04,0.318-0.087,0.639-0.138,0.955
		c-0.187-0.158-0.462-0.754-0.833-1.793c-1.017,0.24-1.641,0.361-1.872,0.361c0.451,1.176,1.034,2.297,1.735,3.344
		c-0.37,0.637-1.067,1.219-2.082,1.732c0.693,0.363,1.295,0.777,1.804,1.254c0.503-0.436,0.989-0.895,1.455-1.371
		c0.187-0.119,0.303-0.197,0.347-0.238c1.108,0.873,3.214,1.314,6.313,1.314h5.688c0.131-0.74,0.44-1.439,0.902-2.033
		c-1.574,0.16-3.47,0.24-5.688,0.24v-1.316h4.092v-1.494h-4.092v-0.535h3.607v-1.436h-3.607v-0.537h3.607V49.19h1.524v-1.494h-1.524
		v-1.971h-3.607c0-0.279,0.047-0.518,0.138-0.717v-0.18c-0.047-0.08-0.185-0.121-0.416-0.121h-1.873v1.018h-2.427V47.159z
		 M58.235,47.759v-0.6h1.387v0.6H58.235z M58.235,49.19h1.455v0.658h-1.455V49.19z"/>
	<path fill="#E60012" d="M45.632,18.383l-2.842,7.58l11.46-0.045l0.903-2.436l-6.678,0.044l1.218-3.068l6.496,0.045l0.588-1.85
		L45.632,18.383z M33.902,17.932l-2.976,8.075l10.556-0.09l0.946-2.436l-6.045,0.044l1.264-3.292h6.045l0.857-1.986L33.902,17.932
		L33.902,17.932z M22.67,17.481l-3.067,8.617h4.375l0.812-2.437l2.075,2.437l2.978-0.045l0.542-1.579l-1.624,0.045l-0.992-1.083
		h3.112l2.075-5.548L22.67,17.481z M26.189,19.556l3.519,0.091l-0.542,1.534h-3.428L26.189,19.556z M20.411,21.174h-3.022
		l-2.436,6.181l6.135-0.136l32.888-0.496l-0.587,1.669l-28.494,0.694L7.571,29.462c-1.473-0.829-1.847-1.913-1.035-3.343
		c2.874-4.517,6.276-8.038,10.952-8.748h4.359L20.411,21.174z"/>
	<path fill="#FFFFFF" d="M31.684,5.392c7.481,0,14.276,2.065,19.205,5.395c4.967,3.356,8.047,8,8.047,13.125
		c0,5.125-3.08,9.769-8.047,13.125c-4.928,3.33-11.724,5.395-19.205,5.395c-7.48,0-14.275-2.064-19.204-5.395
		c-4.966-3.355-8.045-8-8.045-13.125c0-5.126,3.079-9.77,8.045-13.125C17.409,7.457,24.204,5.392,31.684,5.392z M31.684,6.051
		c-7.346,0-14.011,2.021-18.835,5.282c-4.787,3.234-7.755,7.685-7.755,12.579c0,4.893,2.968,9.343,7.755,12.578
		c4.824,3.262,11.489,5.281,18.835,5.281c7.347,0,14.011-2.02,18.836-5.281c4.788-3.234,7.756-7.685,7.756-12.578
		c0-4.894-2.968-9.345-7.756-12.58C45.695,8.072,39.031,6.051,31.684,6.051z"/>
	<path fill="#FFFFFF" d="M22.35,16.776c0.767-3.356,2.06-6.216,3.688-8.222c1.61-1.985,3.552-3.142,5.647-3.142
		c2.052,0,3.956,1.109,5.546,3.017c1.607,1.929,2.897,4.687,3.692,7.939l-0.639,0.154c-0.769-3.15-2.014-5.815-3.561-7.671
		c-1.465-1.758-3.197-2.78-5.04-2.78c-1.884,0-3.651,1.068-5.137,2.897c-1.565,1.928-2.812,4.695-3.557,7.956L22.35,16.776z
		 M49.354,29.415c-1.188,3.817-3.581,7.11-6.728,9.432c-3.069,2.266-6.854,3.607-10.942,3.607c-3.83,0.002-7.564-1.193-10.681-3.42
		c-3.104-2.209-5.505-5.352-6.786-9.015l0.62-0.217c1.232,3.506,3.519,6.543,6.547,8.697c3.006,2.146,6.607,3.297,10.3,3.293
		c3.943,0,7.593-1.291,10.549-3.473c3.036-2.238,5.344-5.418,6.49-9.101L49.354,29.415L49.354,29.415z"/>
	<path fill="#FFFFFF" d="M14.553,16.916c1.401-3.415,3.781-6.337,6.841-8.4c3.039-2.053,6.624-3.148,10.291-3.145
		c3.552-0.002,7.029,1.026,10.008,2.959c3,1.943,5.38,4.707,6.855,7.964l-0.6,0.271c-1.424-3.142-3.72-5.808-6.615-7.683
		c-2.872-1.865-6.225-2.855-9.649-2.852c-3.536-0.003-6.992,1.052-9.922,3.032c-2.952,1.989-5.249,4.808-6.6,8.101L14.553,16.916z"
		/>
	<path fill="#FFFFFF" d="M42.941,7.467c-0.911,1.045-2.497,1.933-4.509,2.549c-1.927,0.592-4.252,0.937-6.748,0.937
		c-2.485,0-4.8-0.343-6.72-0.927c-2.005-0.611-3.591-1.491-4.511-2.531l0.492-0.435c0.837,0.947,2.318,1.76,4.209,2.336
		c1.861,0.567,4.11,0.899,6.529,0.899c2.432,0,4.691-0.334,6.555-0.906c1.895-0.58,3.374-1.401,4.205-2.354L42.941,7.467z
		 M20.571,40.208c0.953-1.006,2.54-1.855,4.524-2.445c1.901-0.563,4.176-0.895,6.613-0.895c2.436,0,4.709,0.332,6.612,0.895
		c1.986,0.59,3.571,1.439,4.525,2.445l-0.477,0.453c-0.874-0.922-2.359-1.711-4.233-2.266c-1.843-0.547-4.052-0.865-6.427-0.865
		s-4.586,0.318-6.427,0.865c-1.875,0.555-3.36,1.344-4.234,2.266L20.571,40.208z M10.152,34.601
		c2.863-0.943,6.238-1.702,9.965-2.219c3.584-0.498,7.489-0.771,11.567-0.771c4.087,0,8.001,0.275,11.592,0.774
		c3.734,0.519,7.116,1.28,9.978,2.228l-0.206,0.627c-2.83-0.938-6.173-1.689-9.861-2.203c-3.555-0.494-7.437-0.766-11.502-0.766
		c-4.055,0-7.93,0.271-11.479,0.762c-3.683,0.512-7.02,1.262-9.848,2.193L10.152,34.601z M10.285,13.266l-0.105-0.035l0.205-0.625
		l0.104,0.035L10.285,13.266z M10.6,12.677l0.001,0C10.601,12.677,10.601,12.677,10.6,12.677z"/>
	<path fill="#FFFFFF" d="M53.251,13.184C50.386,14.14,47,14.908,43.26,15.431c-3.6,0.504-7.525,0.782-11.626,0.782
		c-3.987,0-7.829-0.272-11.365-0.759c-3.705-0.511-7.072-1.258-9.926-2.177l0.2-0.625c2.818,0.907,6.148,1.646,9.814,2.15
		c3.5,0.482,7.31,0.751,11.277,0.751c4.08,0,7.973-0.275,11.535-0.773c3.7-0.518,7.046-1.277,9.874-2.218L53.251,13.184z
		 M20.454,40.329c0.031-0.035,0.052-0.059,0.058-0.064h-0.001c0.006-0.008,0.015-0.016,0.061-0.063l0.476,0.451
		c-0.009,0.01-0.008,0.01-0.05,0.057h-0.001c-0.031,0.033-0.046,0.049-0.05,0.053L20.454,40.329z M22.782,29.921
		c0.76,3.326,2.128,6.414,3.821,8.615c1.547,2.012,3.355,3.277,5.197,3.277c1.777,0,3.588-1.338,5.166-3.393
		c1.766-2.305,3.223-5.496,4.018-8.747l0.637,0.154c-0.813,3.339-2.313,6.619-4.132,8.992c-1.699,2.213-3.688,3.65-5.688,3.65
		c-2.063,0-4.049-1.361-5.717-3.529c-1.75-2.277-3.162-5.457-3.943-8.872L22.782,29.921z"/>
	<path fill="#FFFFFF" d="M32.006,5.677v11.395h-0.66V5.677H32.006z M32.006,29.504v12.608h-0.66V29.504H32.006z M4.807,23.582h2.448
		v0.658H4.807V23.582z M56.277,23.582h2.445v0.658h-2.445V23.582z"/>
</g>
</svg>
