<?xml version="1.0" standalone="no"?><!DOCTYPE svg PUBLIC "-//W3C//DTD SVG 1.1//EN" "http://www.w3.org/Graphics/SVG/1.1/DTD/svg11.dtd"><svg t="1606828379325" class="icon" viewBox="0 0 1026 1024" version="1.1" xmlns="http://www.w3.org/2000/svg" p-id="1988" xmlns:xlink="http://www.w3.org/1999/xlink" width="200.390625" height="200"><defs><style type="text/css"></style></defs><path d="M2.952 877.648h38.552v-16.912h55.528v80.816h40.832v-80.816h56.704v14.112h41.936v-107.12h-98.64v-23.504c0-6.888 1.12-12.832 3.392-17.832 0.776-1.288 1.16-2.208 1.16-2.848 0-0.6-2.656-1.232-7.928-1.88h-38.552v46.072H2.952v109.912z m38.552-83.624h55.528v41.336H41.504v-41.336z m153.064 41.336h-56.704v-41.336h56.704v41.336zM257.92 940.296h35.296v-11.824h158.832v10h36.384V733.384H257.92v206.912z m194.128-182.304v146.76H293.216V757.992h158.832z m-144.48 56.52v22.8h45.224v30.064h-51.856v23.728h143.392v-23.728h-20.944l16.52-9.112c-1.464-1.816-6.6-8.824-15.44-20.952h13.224v-22.8H388.08v-20.072h54.024v-22.8H303.152v22.8H352.8v20.072h-45.232z m86.032 31.896a249.648 249.648 0 0 1 16.52 20.968h-22.024v-30.064h22.024l-16.52 9.096zM603.016 790.56h-57.272c1.504-2.52 3.336-5.712 5.544-9.56 1.456-3.832 2.904-7.008 4.376-9.584h55.056v-24.872h-45.144c5.856-11.48 9.192-18.168 9.896-20.104-9.52-2.56-20.904-4.768-34.104-6.68-1.504-0.664-2.576-0.984-3.344-0.984-7.32 33.848-19.44 64.776-36.312 92.864 6.576 1.912 15.416 6.36 26.416 13.4l6.624-10.536h7.696v21.08h-35.232v24.864h35.232v31.608c0 3.808-3.656 7.968-10.992 12.424 7.336 19.808 12.072 30.632 14.28 32.544 0 0 4.416-2.248 13.24-6.704a3675.8 3675.8 0 0 1 59.448-32.552 103.856 103.856 0 0 1-5.504-25.84 4496.64 4496.64 0 0 0-33.04 16.296c1.464-0.656 0 0-4.416 1.912v-29.688h31.952v-24.864h-31.952v-20.096h27.536V790.56z m22.04-53.584c-3.672 28.072-9.92 51.992-18.752 71.816 19.12 1.256 29.736 2.2 31.944 2.848 3.664-7.688 6.632-15.32 8.832-23h20.904v23.936c0 4.496-0.384 7.672-1.128 9.584h-49.52V848h46.232c-10.288 30.008-34.112 55.848-71.552 77.536 6.568 2.536 17.992 8.296 34.112 17.224 21.28-16.568 40.4-36.984 57.272-61.24 13.952 26.784 33.024 46.88 57.256 60.272 8.8-12.136 16.88-21.032 24.2-26.792-31.52-15.32-52.112-37.648-61.632-67.008h52.848v-25.832h-55.072c0.76-1.912 1.08-5.096 1.08-9.584v-22.952h45.16v-25.856h-44.016v-26.792c0-3.832 0.376-7.664 1.072-11.504 0.752-1.88 0.376-3.192-1.072-3.8-1.464-1.312-13.208-1.912-35.24-1.912v44.008h-14.328a362.88 362.88 0 0 1 5.496-17.224l1.128-6.704-35.224-2.864z" fill="#1A1918" p-id="1989"></path><path d="M861.952 759.096h38.832v9.592h-51.064v22.944h51.064v10.536h-39.928v21.992h39.928v8.616h-42.16v22.976h42.16v8.576h-48.84v23.92h48.84v21.072c-28.096 0-49.936-5.104-65.472-15.32 9.616-20.4 14.032-51.024 13.304-91.832h-27.752c8.848-16.576 18.848-38.896 29.976-66.992h-79.952v25.84h33.296c-2.928 13.384-7.008 23.296-12.168 29.664-4.448 6.376-11.136 9.888-19.992 10.536v25.8h41.072v22a439.984 439.984 0 0 1-2.224 15.312c-2.984-2.528-7.384-12.088-13.312-28.696-16.296 3.832-26.28 5.752-29.984 5.752a269.592 269.592 0 0 0 27.768 53.552c-5.92 10.216-17.056 19.48-33.304 27.76 11.088 5.776 20.704 12.456 28.856 20.096a393.696 393.696 0 0 0 23.296-22.008c2.984-1.904 4.832-3.176 5.536-3.792 17.768 13.992 51.456 21.016 101.048 21.016h91.04a74.664 74.664 0 0 1 14.456-32.536c-25.16 2.568-55.512 3.848-91.04 3.848v-21.072h65.504v-23.92h-65.504v-8.576h57.744v-22.976h-57.744v-8.616h57.744v-32.528h24.392v-23.92h-24.392v-31.544h-57.744c0-4.496 0.752-8.288 2.224-11.472v-2.912c-0.768-1.264-2.992-1.912-6.68-1.912h-29.992v16.296h-38.832v22.928z m73.28 9.592v-9.592h22.208v9.592h-22.208z m0 22.944h23.304v10.536h-23.304v-10.536z" fill="#1A1918" p-id="1990"></path><path d="M329.696 343.112h-48.384l-39.008 98.944 98.224-2.168 526.496-7.944-9.384 26.728-456.168 11.112-277.328 6.016c-23.584-13.264-29.576-30.632-16.576-53.536 46-72.304 100.48-128.672 175.344-140.04h69.784l-23 60.888z" fill="#D4161B" p-id="1991"></path><path d="M733.408 298.32l-45.504 121.344 183.456-0.728 14.448-39-106.888 0.72 19.496-49.12 104 0.728 9.392-29.616-178.4-4.328zM545.632 291.104l-47.664 129.272 169-1.44 15.16-39-96.776 0.72 20.216-52.72h96.784l13.72-31.784-170.44-5.048zM365.808 283.88l-49.112 137.952h70.056l13-39.016 33.224 39.016 47.664-0.728 8.664-25.28-26 0.728-15.88-17.336h49.824l33.224-88.832-164.664-6.504z m56.328 33.224l56.336 1.456-8.672 24.552h-54.888l7.224-26.008z" fill="#D4161B" p-id="1992"></path><path d="M510.192 90.448c119.76 0 228.544 33.056 307.448 86.36 79.504 53.72 128.8 128.056 128.8 210.12 0 82.056-49.296 156.408-128.8 210.12-78.896 53.312-187.688 86.368-307.448 86.368-119.752 0-228.544-33.056-307.44-86.368-79.504-53.728-128.8-128.064-128.8-210.12 0-82.064 49.288-156.4 128.8-210.12 78.896-53.304 187.688-86.36 307.44-86.36z m0 10.56c-117.608 0-224.304 32.344-301.544 84.544-76.632 51.784-124.144 123.048-124.144 201.376s47.512 149.592 124.144 201.368c77.24 52.2 183.936 84.552 301.544 84.552s224.304-32.352 301.544-84.552c76.632-51.776 124.144-123.04 124.144-201.368 0-78.328-47.504-149.592-124.144-201.384-77.232-52.192-183.928-84.536-301.544-84.536z" fill="#02418B" p-id="1993"></path><path d="M360.752 272.712c12.28-53.744 32.976-99.52 59.048-131.632 25.776-31.768 56.864-50.304 90.4-50.304 32.856 0 63.328 17.76 88.8 48.312 25.728 30.864 46.392 75.016 59.104 127.088l-10.216 2.472c-12.312-50.432-32.24-93.088-57.008-122.816-23.456-28.152-51.168-44.504-80.672-44.504-30.168 0-58.464 17.096-82.24 46.384-25.048 30.872-45.016 75.152-56.944 127.352l-10.272-2.352zM793.056 475.04c-19.04 61.104-57.328 113.832-107.696 151-49.136 36.256-109.744 57.72-175.168 57.72a293.944 293.944 0 0 1-171.008-54.712c-49.696-35.376-88.12-85.696-108.64-144.344l9.936-3.472a288 288 0 0 0 104.808 139.232 283.512 283.512 0 0 0 164.904 52.728c63.12 0 121.552-20.664 168.888-55.608 48.6-35.848 85.544-86.728 103.904-145.688l10.072 3.144z" fill="#02418B" p-id="1994"></path><path d="M235.928 274.936a299.008 299.008 0 0 1 109.528-134.48 293.944 293.944 0 0 1 164.744-50.352 293.896 293.896 0 0 1 160.216 47.384 298.888 298.888 0 0 1 109.76 127.488l-9.6 4.336a288.48 288.48 0 0 0-105.888-123.008 283.28 283.28 0 0 0-154.488-45.648 283.416 283.416 0 0 0-158.848 48.536 288.368 288.368 0 0 0-105.648 129.696l-9.776-3.952z" fill="#02418B" p-id="1995"></path><path d="M690.4 123.664c-14.568 16.744-39.976 30.952-72.168 40.824-30.864 9.464-68.088 15-108.032 15-39.784 0-76.848-5.488-107.584-14.856-32.096-9.776-57.488-23.88-72.208-40.528l7.872-6.96c13.392 15.16 37.104 28.176 67.384 37.4 29.8 9.072 65.8 14.384 104.528 14.384 38.944 0 75.096-5.352 104.936-14.496 30.32-9.288 54.016-22.424 67.32-37.688l7.952 6.92zM332.272 647.832c15.264-16.104 40.664-29.712 72.448-39.152 30.44-9.024 66.848-14.304 105.856-14.304 39.008 0 75.416 5.28 105.856 14.304 31.784 9.44 57.176 23.048 72.456 39.152l-7.632 7.248c-14-14.768-37.768-27.384-67.784-36.288-29.488-8.752-64.872-13.856-102.896-13.856-38.032 0-73.416 5.112-102.888 13.856-30.016 8.904-53.792 21.52-67.792 36.288l-7.624-7.248zM165.48 558.04c45.816-15.096 99.856-27.232 159.52-35.512 57.376-7.96 119.896-12.344 185.192-12.344 65.448 0 128.088 4.4 185.576 12.392 59.776 8.312 113.896 20.504 159.736 35.672l-3.296 10.016c-45.32-14.992-98.816-27.04-157.888-35.256-56.896-7.904-119.048-12.264-184.128-12.264-64.928 0-126.952 4.336-183.76 12.216-58.968 8.184-112.392 20.176-157.664 35.104l-3.288-10.024zM167.6 216.504l-1.68-0.56 3.264-10.008 1.672 0.552-3.256 10.016zM172.656 207.072l0.024 0.008c-0.016 0.008-0.016 0.008-0.024-0.008z" fill="#02418B" p-id="1996"></path><path d="M855.424 215.2c-45.856 15.296-100.056 27.592-159.928 35.968-57.616 8.064-120.456 12.512-186.12 12.512-63.84 0-125.336-4.36-181.952-12.144-59.304-8.176-113.224-20.144-158.912-34.848l3.208-10.008c45.112 14.512 98.416 26.344 157.104 34.424 56.032 7.712 117.032 12.024 180.544 12.024 65.296 0 127.64-4.4 184.672-12.384 59.248-8.288 112.816-20.432 158.04-35.52l3.344 9.976zM330.4 649.776c0.504-0.592 0.84-0.96 0.928-1.056h-0.016c0.088-0.104 0.232-0.232 0.968-1.016l7.624 7.248c-0.136 0.152-0.128 0.168-0.8 0.912h-0.016c-0.504 0.536-0.744 0.784-0.8 0.856l-7.888-6.944zM367.68 483.144c12.16 53.232 34.072 102.672 61.176 137.928 24.768 32.208 53.712 52.432 83.192 52.432 28.456 0 57.448-21.4 82.696-54.296 28.296-36.896 51.616-87.992 64.328-140.032l10.216 2.472c-13.04 53.448-37.048 105.96-66.168 143.936-27.184 35.448-59.032 58.464-91.072 58.464-33.016 0-64.808-21.8-91.52-56.536-28.032-36.456-50.624-87.344-63.12-142.008l10.272-2.36z" fill="#02418B" p-id="1997"></path><path d="M515.336 95.008v182.424h-10.56V95.008h10.56zM515.336 476.456v201.856h-10.56V476.456h10.56zM79.904 381.656h39.184v10.544H79.904v-10.544zM903.872 381.656h39.176v10.544h-39.176v-10.544z" fill="#02418B" p-id="1998"></path></svg>