<?xml version="1.0" standalone="no"?><!DOCTYPE svg PUBLIC "-//W3C//DTD SVG 1.1//EN" "http://www.w3.org/Graphics/SVG/1.1/DTD/svg11.dtd"><svg t="1606868419875" class="icon" viewBox="0 0 1024 1024" version="1.1" xmlns="http://www.w3.org/2000/svg" p-id="1501" xmlns:xlink="http://www.w3.org/1999/xlink" width="200" height="200"><defs><style type="text/css"></style></defs><path d="M145.066667 349.866667C217.6 458.666667 352 533.333333 512 533.333333c153.6 0 290.133333-76.8 366.933333-181.333333 6.4-8.533333 21.333333-10.666667 29.866667-4.266667s10.666667 21.333333 4.266667 29.866667c-19.2 25.6-40.533333 49.066667-64 70.4l46.933333 66.133333c6.4 10.666667 4.266667 23.466667-4.266667 29.866667-10.666667 6.4-23.466667 4.266667-29.866666-4.266667l-44.8-64c-34.133333 25.6-72.533333 46.933333-113.066667 64l27.733333 68.266667c4.266667 10.666667 0 23.466667-12.8 27.733333s-23.466667 0-27.733333-12.8l-27.733333-70.4c-40.533333 12.8-83.2 21.333333-128 21.333334v64c0 12.8-8.533333 21.333333-21.333334 21.333333s-21.333333-8.533333-21.333333-21.333333v-64c-40.533333-2.133333-81.066667-8.533333-119.466667-19.2l-27.733333 66.133333c-4.266667 10.666667-17.066667 17.066667-27.733333 12.8s-17.066667-17.066667-12.8-27.733333l25.6-64c-44.8-17.066667-87.466667-40.533333-123.733334-68.266667l-42.666666 61.866667c-6.4 10.666667-19.2 12.8-29.866667 4.266666s-12.8-19.2-4.266667-29.866666l44.8-64c-23.466667-23.466667-44.8-46.933333-64-74.666667-6.4-10.666667-4.266667-23.466667 6.4-29.866667 8.533333-2.133333 21.333333 0 27.733334 8.533334z" fill="#1E87EB" p-id="1502"></path></svg>