<?xml version="1.0" standalone="no"?><!DOCTYPE svg PUBLIC "-//W3C//DTD SVG 1.1//EN" "http://www.w3.org/Graphics/SVG/1.1/DTD/svg11.dtd"><svg t="1606868424811" class="icon" viewBox="0 0 1024 1024" version="1.1" xmlns="http://www.w3.org/2000/svg" p-id="1631" xmlns:xlink="http://www.w3.org/1999/xlink" width="200" height="200"><defs><style type="text/css"></style></defs><path d="M512 661.333333c-83.2 0-149.333333-66.133333-149.333333-149.333333s66.133333-149.333333 149.333333-149.333333 149.333333 66.133333 149.333333 149.333333-66.133333 149.333333-149.333333 149.333333z m0-256c-59.733333 0-106.666667 46.933333-106.666667 106.666667s46.933333 106.666667 106.666667 106.666667 106.666667-46.933333 106.666667-106.666667-46.933333-106.666667-106.666667-106.666667z" fill="#1E87EB" p-id="1632"></path><path d="M512 746.666667c-196.266667 0-405.333333-121.6-405.333333-236.8 0-34.133333 17.066667-68.266667 53.333333-102.4 66.133333-64 202.666667-125.866667 356.266667-121.6 149.333333-4.266667 281.6 57.6 347.733333 121.6 34.133333 34.133333 53.333333 68.266667 53.333333 102.4C917.333333 625.066667 708.266667 746.666667 512 746.666667z m-12.8-418.133334c-136.533333 0-256 55.466667-311.466667 110.933334C162.133333 465.066667 149.333333 488.533333 149.333333 512c0 72.533333 168.533333 194.133333 362.666667 194.133333 196.266667 0 362.666667-119.466667 362.666667-194.133333 0-21.333333-14.933333-46.933333-40.533334-72.533333-57.6-55.466667-181.333333-113.066667-317.866666-108.8-6.4-2.133333-10.666667-2.133333-17.066667-2.133334z" fill="#1E87EB" p-id="1633"></path></svg>