<?xml version="1.0" standalone="no"?><!DOCTYPE svg PUBLIC "-//W3C//DTD SVG 1.1//EN" "http://www.w3.org/Graphics/SVG/1.1/DTD/svg11.dtd"><svg t="1606868613635" class="icon" viewBox="0 0 1024 1024" version="1.1" xmlns="http://www.w3.org/2000/svg" p-id="7135" xmlns:xlink="http://www.w3.org/1999/xlink" width="200" height="200"><defs><style type="text/css"></style></defs><path d="M512 752.64c-15.36 0-25.6-10.24-25.6-25.6v-117.76c0-15.36 10.24-25.6 25.6-25.6s25.6 10.24 25.6 25.6v117.76c0 15.36-10.24 25.6-25.6 25.6zM691.2 394.24c-15.36 0-25.6-10.24-25.6-25.6V256c0-87.04-66.56-153.6-153.6-153.6S358.4 168.96 358.4 256v112.64c0 15.36-10.24 25.6-25.6 25.6S307.2 384 307.2 368.64V256c0-112.64 92.16-204.8 204.8-204.8s204.8 92.16 204.8 204.8v112.64c0 15.36-10.24 25.6-25.6 25.6z" fill="#007AFF" p-id="7136"></path><path d="M727.04 972.8H296.96c-97.28 0-179.2-81.92-179.2-179.2v-235.52c0-97.28 81.92-179.2 179.2-179.2h424.96c97.28 0 179.2 81.92 179.2 179.2v235.52c5.12 97.28-76.8 179.2-174.08 179.2zM296.96 430.08c-71.68 0-128 56.32-128 128v235.52c0 71.68 56.32 128 128 128h424.96c71.68 0 128-56.32 128-128v-235.52c0-71.68-56.32-128-128-128H296.96z" fill="#007AFF" p-id="7137"></path></svg>