<?xml version="1.0" standalone="no"?><!DOCTYPE svg PUBLIC "-//W3C//DTD SVG 1.1//EN" "http://www.w3.org/Graphics/SVG/1.1/DTD/svg11.dtd"><svg t="1648265820645" class="icon" viewBox="0 0 1024 1024" version="1.1" xmlns="http://www.w3.org/2000/svg" p-id="11101" xmlns:xlink="http://www.w3.org/1999/xlink" width="200" height="200"><defs><style type="text/css">@font-face { font-family: "feedback-iconfont"; src: url("//at.alicdn.com/t/font_1031158_u69w8yhxdu.woff2?t=1630033759944") format("woff2"), url("//at.alicdn.com/t/font_1031158_u69w8yhxdu.woff?t=1630033759944") format("woff"), url("//at.alicdn.com/t/font_1031158_u69w8yhxdu.ttf?t=1630033759944") format("truetype"); }
</style></defs><path d="M925.03 771.63c-4.15-17.55-19.98-36.26-42.33-50.05-36.36-22.43-58.06-61.33-58.06-104.04V448.58c0-81.76-31.84-158.62-89.65-216.43-49.44-49.44-112.83-79.87-181.28-87.64v-38.63c0-22.58-18.3-40.88-40.88-40.88h-2.08c-22.58 0-40.88 18.3-40.88 40.88v38.62c-68.46 7.78-131.85 38.2-181.29 87.64-57.81 57.81-89.65 134.68-89.65 216.43v168.97c0 42.72-21.71 81.61-58.06 104.04-23.82 14.7-39.74 33.9-42.59 51.37-2.59 15.87 1.74 30.96 12.51 43.63 23.56 27.7 78.35 44.94 172.42 54.24 41.87 4.14 87.21 6.22 131.89 7.24 3.3 20.02 12.78 38.39 27.5 52.86 18.44 18.11 43 28.08 69.18 28.08 48.29 0 88.53-35.11 96.56-81.14 43.2-1.15 89.67-3.41 132.79-7.81 96.69-9.87 152.04-27.5 174.19-55.5 10-12.65 13.36-27.49 9.71-42.92zM435.01 878.45c0.15 0 0.3 0 0.45 0.01l-0.45 0.06v-0.07zM511.79 921c-27.72 0-50.47-17.59-57.63-42.28 19.71 0.22 39.05 0.28 57.62 0.28 17.11 0 36.53-0.07 57.36-0.36-7.55 24.5-30.41 42.36-57.35 42.36z m76.78-42.48c-0.43-0.04-0.86-0.11-1.29-0.18 0.43-0.01 0.86-0.02 1.29-0.02v0.2z m296.94-87.55c-8.4 10.62-38.83 30.11-148.24 41.27-76.98 7.85-165.56 8.76-225.48 8.76-71.17 0-153.53-0.95-224.84-8-106.68-10.54-138.02-30.24-147.2-41.04-3.57-4.2-4.75-8.06-3.96-12.9 0.42-2.3 5.89-13.33 25.04-25.15 23.21-14.32 42.5-34.48 55.79-58.29a160.63 160.63 0 0 0 20.31-78.09V448.57c0-147.81 120.25-268.07 268.07-268.07h13.57c147.81 0 268.07 120.25 268.07 268.07v168.97c0 27.27 7.02 54.27 20.31 78.09 13.29 23.81 32.58 43.97 55.79 58.29 17.63 10.88 24.26 22.07 25.3 26.46 0.97 4.09 0.26 7.06-2.53 10.59z" p-id="11102"></path><path d="M701.95 478.51c0.91 0 1.82-0.04 2.75-0.13 15.95-1.5 27.67-15.63 26.17-31.58-8.71-92.86-70.81-172.77-158.23-203.57-15.11-5.33-31.67 2.6-36.99 17.71-5.33 15.11 2.6 31.67 17.71 36.99 66.15 23.31 113.15 83.87 119.75 154.28 1.41 15.03 14.04 26.3 28.84 26.3z" p-id="11103"></path><path d="M707.49 544.5m-31 0a31 31 0 1 0 62 0 31 31 0 1 0-62 0Z" p-id="11104"></path></svg>
