<?xml version="1.0" standalone="no"?><!DOCTYPE svg PUBLIC "-//W3C//DTD SVG 1.1//EN" "http://www.w3.org/Graphics/SVG/1.1/DTD/svg11.dtd"><svg t="1648266307046" class="icon" viewBox="0 0 1024 1024" version="1.1" xmlns="http://www.w3.org/2000/svg" p-id="41407" xmlns:xlink="http://www.w3.org/1999/xlink" width="200" height="200"><defs><style type="text/css">@font-face { font-family: "feedback-iconfont"; src: url("//at.alicdn.com/t/font_1031158_u69w8yhxdu.woff2?t=1630033759944") format("woff2"), url("//at.alicdn.com/t/font_1031158_u69w8yhxdu.woff?t=1630033759944") format("woff"), url("//at.alicdn.com/t/font_1031158_u69w8yhxdu.ttf?t=1630033759944") format("truetype"); }
</style></defs><path d="M683.8 304c0-13.8-11.2-25-25-25H290.5c-13.8 0-25 11.2-25 25s11.2 25 25 25h368.3c13.8 0 25-11.2 25-25zM290.5 419.1c-13.8 0-25 11.2-25 25s11.2 25 25 25h228.3c13.8 0 25-11.2 25-25s-11.2-25-25-25H290.5zM398.8 583.5H290.5c-13.8 0-25 11.2-25 25s11.2 25 25 25h108.3c13.8 0 25-11.2 25-25s-11.2-25-25-25z" p-id="41408"></path><path d="M319.9 858.6H167.6V110.3h130.6v70.1c0 13.8 11.2 25 25 25H618c13.8 0 25-11.2 25-25v-70.1h130.6v304.1c0 13.8 11.2 25 25 25s25-11.2 25-25V85.3c0-13.8-11.2-25-25-25h-656c-13.8 0-25 11.2-25 25v798.3c0 13.8 11.2 25 25 25h177.3c13.8 0 25-11.2 25-25s-11.2-25-25-25zM593 155.4H348.1v-45.1H593v45.1zM667.8 800.9c-13.8 0-25 11.2-25 25v4.9c0 13.8 11.2 25 25 25s25-11.2 25-25v-4.9c0-13.8-11.2-25-25-25z" p-id="41409"></path><path d="M669 585.3c-13.8 0-25 11.2-25 25v133.2c0 13.8 11.2 25 25 25s25-11.2 25-25V610.3c0-13.8-11.2-25-25-25z" p-id="41410"></path><path d="M836.9 558.4c-44.8-44.8-104.5-69.5-167.9-69.5s-123 24.7-167.9 69.5c-44.8 44.8-69.5 104.5-69.5 167.9s24.7 123 69.5 167.9C546 939 605.6 963.7 669 963.7s123-24.7 167.9-69.5c44.8-44.8 69.5-104.5 69.5-167.9s-24.7-123.1-69.5-167.9zM669 913.7c-103.3 0-187.4-84.1-187.4-187.4 0-103.3 84.1-187.4 187.4-187.4S856.4 623 856.4 726.3c0 103.3-84 187.4-187.4 187.4z" p-id="41411"></path></svg>
