<?xml version="1.0" standalone="no"?><!DOCTYPE svg PUBLIC "-//W3C//DTD SVG 1.1//EN" "http://www.w3.org/Graphics/SVG/1.1/DTD/svg11.dtd"><svg t="1606868433205" class="icon" viewBox="0 0 1024 1024" version="1.1" xmlns="http://www.w3.org/2000/svg" p-id="1764" xmlns:xlink="http://www.w3.org/1999/xlink" width="200" height="200"><defs><style type="text/css"></style></defs><path d="M964.266667 793.6L640 640c72.533333-96 106.666667-145.066667 106.666667-149.333333V277.333333c0-132.266667-93.866667-234.666667-228.266667-234.666666C384 42.666667 277.333333 145.066667 277.333333 277.333333v213.333334c0 4.266667 40.533333 53.333333 119.466667 149.333333L61.866667 791.466667c-12.8 6.4-19.2 17.066667-19.2 27.733333v132.266667c0 17.066667 12.8 29.866667 29.866666 29.866666h878.933334c17.066667 0 29.866667-12.8 29.866666-29.866666v-132.266667c0-10.666667-6.4-21.333333-17.066666-25.6z m-490.666667-46.933333l-96 49.066666-14.933333-83.2 38.4-17.066666 72.533333 51.2z m125.866667 74.666666L563.2 938.666667h-83.2l-38.4-117.333334 81.066667-44.8 76.8 44.8z m38.4-123.733333l42.666666 21.333333-19.2 76.8-93.866666-49.066666 70.4-49.066667zM512 85.333333c102.4 0 192 93.866667 192 192v202.666667l-115.2 155.733333c-4.266667 6.4-6.4 14.933333-4.266667 23.466667 2.133333 4.266667 4.266667 10.666667 8.533334 12.8l-70.4 46.933333-76.8-46.933333c4.266667-4.266667 6.4-8.533333 6.4-12.8 2.133333-8.533333 0-12.8-4.266667-21.333333l-128-160V277.333333c0-98.133333 89.6-192 192-192zM85.333333 832l234.666667-100.266667 12.8 98.133334c2.133333 8.533333 8.533333 14.933333 14.933333 19.2 8.533333 4.266667 17.066667 4.266667 25.6 0l19.2-8.533334L426.666667 938.666667H85.333333v-106.666667z m531.2 106.666667l34.133334-100.266667 34.133333 10.666667c10.666667 4.266667 17.066667 0 21.333333-8.533334 4.266667-6.4 4.266667-10.666667 6.4-19.2l17.066667-83.2 206.933333 91.733334V938.666667h-320z" fill="#1E87EB" p-id="1765"></path></svg>